HIERARCHY
ROOT Hips
{
	OFFSET	0.00	0.00	0.00
	CHANNELS 6 Xposition Yposition Zposition Zrotation Xrotation Yrotation
	JOINT LeftUpLeg
	{
		OFFSET	 0.126116	-0.065224	 0.014019
		CHANNELS 3 Zrotation Xrotation Yrotation
		JOINT LeftLeg
		{
			OFFSET	 0.000000	 0.569914	 0.000000
			CHANNELS 3 Zrotation Xrotation Yrotation
			JOINT LeftFoot
			{
				OFFSET	 0.000000	 0.544423	 0.000000
				CHANNELS 3 Zrotation Xrotation Yrotation
				JOINT LeftToeBase
				{
					OFFSET	 0.000000	 0.207117	 0.000000
					CHANNELS 3 Zrotation Xrotation Yrotation
					End Site
					{
						OFFSET	 0.000000	 0.207117	 0.000000
					}
				}
			}
		}
	}
	JOINT RightUpLeg
	{
		OFFSET	-0.124023	-0.065224	 0.008373
		CHANNELS 3 Zrotation Xrotation Yrotation
		JOINT RightLeg
		{
			OFFSET	 0.000000	 0.570047	 0.000000
			CHANNELS 3 Zrotation Xrotation Yrotation
			JOINT RightFoot
			{
				OFFSET	 0.000000	 0.544354	 0.000000
				CHANNELS 3 Zrotation Xrotation Yrotation
				JOINT RightToeBase
				{
					OFFSET	 0.000000	 0.207540	 0.000000
					CHANNELS 3 Zrotation Xrotation Yrotation
					End Site
					{
						OFFSET	 0.000000	 0.207540	 0.000000
					}
				}
			}
		}
	}
	JOINT Spine
	{
		OFFSET	 0.000184	 0.117403	 0.007763
		CHANNELS 3 Zrotation Xrotation Yrotation
		JOINT Spine1
		{
			OFFSET	 0.000000	 0.137269	 0.000000
			CHANNELS 3 Zrotation Xrotation Yrotation
			JOINT Spine2
			{
				OFFSET	 0.000000	 0.156879	 0.000000
				CHANNELS 3 Zrotation Xrotation Yrotation
				JOINT LeftShoulder
				{
					OFFSET	 0.080501	 0.160143	 0.002496
					CHANNELS 3 Zrotation Xrotation Yrotation
					JOINT LeftArm
					{
						OFFSET	 0.000000	 0.164363	 0.000000
						CHANNELS 3 Zrotation Xrotation Yrotation
						JOINT LeftForeArm
						{
							OFFSET	 0.000000	 0.364576	 0.000000
							CHANNELS 3 Zrotation Xrotation Yrotation
							JOINT LeftHand
							{
								OFFSET	 0.000000	 0.360812	 0.000000
								CHANNELS 3 Zrotation Xrotation Yrotation
								JOINT LeftHandIndex1
								{
									OFFSET	 0.000000	 0.086006	 0.000000
									CHANNELS 3 Zrotation Xrotation Yrotation
									JOINT LeftHandIndex2
									{
										OFFSET	 0.000000	 0.047237	 0.000000
										CHANNELS 3 Zrotation Xrotation Yrotation
										JOINT LeftHandIndex3
										{
											OFFSET	-0.004284	 0.038165	 0.000551
											CHANNELS 3 Zrotation Xrotation Yrotation
											End Site
											{
												OFFSET	-0.004284	 0.038165	 0.000551
											}
										}
									}
								}
							}
						}
					}
				}
				JOINT Neck
				{
					OFFSET	 0.000000	 0.176489	 0.000000
					CHANNELS 3 Zrotation Xrotation Yrotation
					JOINT Head
					{
						OFFSET	 0.000000	 0.077941	 0.001747
						CHANNELS 3 Zrotation Xrotation Yrotation
						End Site
						{
							OFFSET	 0.000000	 0.077941	 0.001747
						}
					}
				}
				JOINT RightShoulder
				{
					OFFSET	-0.080363	 0.159706	-0.000306
					CHANNELS 3 Zrotation Xrotation Yrotation
					JOINT RightArm
					{
						OFFSET	 0.000000	 0.164196	 0.000000
						CHANNELS 3 Zrotation Xrotation Yrotation
						JOINT RightForeArm
						{
							OFFSET	 0.000000	 0.365611	 0.000000
							CHANNELS 3 Zrotation Xrotation Yrotation
							JOINT RightHand
							{
								OFFSET	 0.000000	 0.360648	 0.000000
								CHANNELS 3 Zrotation Xrotation Yrotation
								JOINT RightHandIndex1
								{
									OFFSET	 0.000000	 0.069977	 0.000000
									CHANNELS 3 Zrotation Xrotation Yrotation
									JOINT RightHandIndex2
									{
										OFFSET	 0.000000	 0.052305	 0.000000
										CHANNELS 3 Zrotation Xrotation Yrotation
										JOINT RightHandIndex3
										{
											OFFSET	 0.009002	 0.042196	 0.000782
											CHANNELS 3 Zrotation Xrotation Yrotation
											End Site
											{
												OFFSET	 0.009002	 0.042196	 0.000782
											}
										}
									}
								}
							}
						}
					}
				}
			}
		}
	}
}
MOTION
Frames:    9
Frame Time: 0.03333334
-0.000843	 1.269498	-0.008675	-0.068290	 3.235379	 178.804800	-178.218000	 3.088542	-15.692330	 3.044725	-15.058410	 2.862773	-5.243256	 69.413190	 6.730349	 1.331492	 28.938720	-2.729976	 177.711900	 4.194882	 19.209100	-5.102910	-16.353560	-6.464679	 2.576467	 70.417720	-1.752154	-1.305362	 28.580660	 2.604056	-1.230937	 4.066228	 8.360568	-1.391882	 1.523204	 3.574634	-1.191043	 1.373882	-14.985950	-113.447100	 5.125119	 92.999840	 47.019570	 42.907540	 8.775215	 4.754079	-0.237786	-0.254585	-4.881258	 6.436385	 10.777810	-6.580301	 5.266122	 0.000000	 0.000000	 0.000000	 0.000000	 0.000000	 0.000000	 0.000000	 3.832392	-0.649754	-0.250894	 3.223374	 0.715889	-2.128224	 114.205300	-4.425643	-88.484490	-71.975620	-4.804423	 45.113430	-89.170710	-2.246783	-1.980976	-2.222993	-18.009690	-62.624500	-0.359781	 10.582430	 0.744568	 11.977790	 9.317296	-2.096062	-8.359143	 3.150329	 0.104225
-0.000688	 1.269494	-0.008813	-0.045776	 3.238892	 178.759700	-178.053100	 3.075105	-16.729030	 3.049501	-15.080940	 2.843613	-5.297898	 69.382030	 6.784204	 1.331492	 28.938720	-2.729976	 177.602900	 4.173383	 20.173180	-5.096204	-16.333290	-6.496228	 2.485495	 70.414490	-1.652944	-1.305376	 28.580740	 2.600551	-1.164119	 4.081613	 7.398762	-1.383158	 1.513186	 3.596358	-1.195283	 1.378123	-14.977950	-113.447200	 5.117682	 92.998210	 46.499110	 43.096890	 9.103170	 5.297483	-0.238842	-0.867685	-4.572906	 6.109333	 10.279990	-6.580301	 5.266122	 0.000000	 0.000000	 0.000000	 0.000000	 0.000000	 0.000000	 0.000000	 3.844486	-0.677501	-0.254658	 3.268856	 0.731965	-2.154181	 114.203100	-4.410921	-88.495150	-71.257670	-5.225334	 44.078060	-90.641140	-2.226364	-1.423308	-1.448354	-16.287270	-61.280510	-0.359778	 10.582350	 0.744568	 11.977790	 9.317223	-2.096047	-8.359141	 3.150290	 0.104228
-0.000371	 1.269488	-0.009070	-0.009180	 3.244794	 178.685500	-177.846500	 3.054329	-17.918350	 3.056600	-15.114460	 2.811944	-5.398471	 69.346480	 6.877725	 1.331492	 28.938720	-2.729976	 177.503200	 4.137886	 21.242160	-5.085423	-16.300650	-6.548625	 2.334652	 70.420360	-1.488489	-1.305399	 28.580870	 2.594774	-1.053997	 4.104733	 5.808520	-1.385127	 1.491696	 3.625590	-1.194453	 1.386781	-14.964800	-113.447400	 5.105439	 92.995530	 45.524480	 43.648450	 9.661686	 6.192879	-0.240589	-1.877646	-4.046661	 5.314150	 9.523191	-6.580301	 5.266122	 0.000000	 0.000000	 0.000000	 0.000000	 0.000000	 0.000000	 0.000000	 3.864412	-0.723229	-0.260850	 3.343850	 0.758425	-2.197040	 114.199600	-4.386632	-88.512690	-70.591650	-5.966565	 42.181460	-93.435080	-2.188681	-0.518644	 0.239152	-13.616900	-59.395210	-0.359775	 10.582230	 0.744568	 11.977790	 9.317101	-2.096023	-8.359138	 3.150226	 0.104235
 0.000144	 1.269479	-0.009462	 0.038547	 3.252941	 178.587400	-177.617100	 3.026403	-19.123360	 3.065152	-15.154670	 2.770173	-5.540908	 69.307830	 7.004332	 1.331492	 28.938720	-2.729976	 177.431400	 4.089666	 22.288040	-5.071501	-16.258520	-6.618661	 2.129742	 70.439460	-1.267534	-1.305428	 28.581040	 2.587123	-0.908383	 4.130959	 3.700050	-1.413238	 1.454572	 3.655339	-1.181035	 1.402052	-14.947380	-113.447700	 5.089241	 92.992000	 43.938790	 44.689210	 10.545700	 7.376880	-0.242774	-3.214181	-3.241897	 3.910142	 8.601693	-6.580301	 5.266122	 0.000000	 0.000000	 0.000000	 0.000000	 0.000000	 0.000000	 0.000000	 3.890799	-0.783805	-0.269026	 3.443263	 0.793389	-2.253908	 114.195000	-4.354464	-88.535950	-70.534040	-7.103313	 39.469390	-97.543700	-2.128518	 0.663890	 3.065241	-10.260100	-57.263870	-0.359769	 10.582070	 0.744568	 11.977790	 9.316940	-2.095990	-8.359135	 3.150141	 0.104243
 0.000799	 1.269469	-0.009956	 0.090511	 3.261676	 178.479200	-177.391100	 2.993988	-20.218130	 3.073589	-15.194550	 2.724110	-5.705057	 69.268470	 7.145702	 1.331492	 28.938720	-2.729976	 177.392300	 4.035059	 23.207440	-5.056463	-16.212950	-6.696683	 1.898234	 70.470310	-1.020050	-1.305461	 28.581220	 2.578696	-0.748930	 4.153955	 1.387940	-1.467925	 1.403691	 3.682049	-1.154844	 1.423028	-14.928180	-113.447900	 5.071373	 92.988070	 41.837820	 46.090810	 11.756120	 8.677708	-0.244937	-4.683390	-2.223580	 2.056903	 7.654704	-6.580301	 5.266122	 0.000000	 0.000000	 0.000000	 0.000000	 0.000000	 0.000000	 0.000000	 3.919853	-0.850528	-0.278000	 3.552853	 0.831782	-2.316690	 114.189800	-4.319028	-88.561570	-71.447930	-8.584493	 36.322690	-102.160800	-2.048421	 1.962761	 6.624255	-6.710606	-55.158510	-0.359764	 10.581890	 0.744568	 11.977790	 9.316765	-2.095955	-8.359132	 3.150048	 0.104251
 0.001747	 1.269454	-0.010708	 0.160169	 3.273232	 178.333800	-177.112100	 2.946960	-21.476810	 3.084208	-15.244490	 2.662770	-5.930375	 69.219050	 7.335504	 1.331492	 28.938720	-2.729976	 177.375600	 3.957697	 24.230820	-5.035862	-16.150480	-6.802711	 1.582571	 70.521830	-0.682125	-1.305505	 28.581470	 2.567366	-0.537090	 4.175010	-1.676438	-1.559662	 1.324686	 3.720335	-1.110830	 1.455863	-14.902290	-113.448300	 5.047366	 92.982800	 38.607350	 48.127060	 13.762800	 10.416730	-0.247507	-6.651569	-0.728975	-0.656628	 6.428655	-6.580301	 5.266122	 0.000000	 0.000000	 0.000000	 0.000000	 0.000000	 0.000000	 0.000000	 3.958896	-0.940237	-0.290010	 3.700342	 0.883225	-2.401335	 114.183000	-4.271376	-88.596040	-73.952840	-10.793510	 31.973590	-107.882700	-1.924561	 3.726878	 11.358930	-2.091851	-52.387790	-0.359756	 10.581650	 0.744568	 11.977790	 9.316527	-2.095907	-8.359127	 3.149923	 0.104263
 0.002811	 1.269433	-0.011686	 0.242373	 3.286076	 178.165000	-176.812600	 2.887081	-22.751960	 3.096593	-15.302810	 2.592265	-6.193062	 69.170090	 7.555614	 1.331492	 28.938720	-2.729976	 177.382800	 3.862595	 25.232240	-5.010963	-16.074980	-6.927468	 1.219819	 70.589010	-0.285018	-1.305556	 28.581760	 2.554201	-0.296462	 4.185259	-5.127368	-1.656346	 1.226429	 3.789829	-1.064386	 1.497195	-14.871930	-113.448800	 5.019468	 92.976690	 34.724880	 50.305090	 16.413560	 12.427960	-0.250324	-8.924430	 0.963339	-3.668669	 4.993650	-6.580301	 5.266122	 0.000000	 0.000000	 0.000000	 0.000000	 0.000000	 0.000000	 0.000000	 4.004243	-1.044490	-0.303891	 3.871955	 0.942735	-2.500034	 114.175100	-4.216024	-88.636030	-77.500070	-13.041750	 27.119550	-113.546700	-1.770333	 5.809362	 15.342890	 3.136956	-48.855430	-0.359747	 10.581370	 0.744568	 11.977790	 9.316252	-2.095851	-8.359122	 3.149777	 0.104277
 0.003768	 1.269399	-0.012914	 0.341003	 3.299587	 177.970000	-176.496600	 2.812788	-24.059670	 3.113565	-15.382590	 2.513013	-6.488739	 69.136810	 7.808061	 1.331492	 28.938720	-2.729976	 177.401000	 3.746987	 26.221540	-4.980240	-15.981680	-7.073007	 0.825077	 70.665760	 0.172684	-1.305614	 28.582100	 2.539051	-0.029866	 4.178563	-8.879039	-1.696869	 1.118813	 3.937543	-1.044580	 1.544033	-14.836470	-113.449300	 4.987364	 92.969650	 31.113930	 52.038900	 19.120730	 14.740460	-0.254129	-11.514560	 2.438603	-6.249874	 3.239669	-6.580301	 5.266122	 0.000000	 0.000000	 0.000000	 0.000000	 0.000000	 0.000000	 0.000000	 4.056397	-1.164474	-0.319762	 4.069747	 1.010864	-2.614067	 114.166000	-4.152310	-88.682040	-79.251440	-14.107730	 22.744420	-119.747000	-1.575417	 8.205601	 15.765950	 8.900059	-43.956210	-0.359737	 10.581050	 0.744568	 11.977790	 9.315934	-2.095787	-8.359116	 3.149609	 0.104293
 0.004193	 1.269342	-0.014361	 0.452564	 3.307849	 177.788000	-176.188600	 2.734204	-25.364990	 3.138391	-15.499260	 2.456635	-6.722032	 69.145060	 8.007134	 1.331492	 28.938720	-2.729976	 177.394300	 3.615148	 27.234410	-4.944860	-15.874160	-7.208591	 0.518091	 70.740790	 0.587310	-1.305712	 28.582900	 2.521395	 0.253775	 4.144279	-12.776930	-1.583818	 1.038267	 4.217404	-1.096528	 1.568729	-14.794310	-113.449900	 4.948763	 92.960280	 29.961990	 52.420940	 20.166760	 17.406910	-0.261644	-14.416430	 2.895660	-7.092837	 0.996652	-6.580301	 5.266122	 0.000000	 0.000000	 0.000000	 0.000000	 0.000000	 0.000000	 0.000000	 4.108121	-1.297326	-0.332887	 4.267020	 1.081593	-2.729621	 114.156200	-4.083355	-88.731830	-72.483310	-12.654770	 20.378220	-128.250000	-1.293324	 10.862700	 7.938396	 13.408950	-37.193310	-0.359724	 10.580660	 0.744568	 11.977790	 9.315552	-2.095709	-8.359108	 3.149407	 0.104312
